<?xml version="1.0" encoding="UTF-8"?>
<!-- Created with Inkscape (http://www.inkscape.org/) -->
<svg id="svg5" width="100mm" height="100mm" version="1.1" viewBox="0 0 100 100" xmlns="http://www.w3.org/2000/svg">
 <g id="layer-background">
  <rect id="rect2738" width="100" height="100" fill="#f2f2f2" stop-color="#000000" stroke-width=".26458"/>
 </g>
 <g id="layer-lines-1">
  <g id="layer-1-part-1" fill="none" stroke="#727272" stroke-width="1.2">
   <path id="road12" d="m50.341 77.22 5.049 1.485 4.455 2.673 5.346 3.267 7.128 1.3365 4.9005-.4455 4.752-1.188 2.673-1.485"/>
   <path id="road11" d="m50.341 77.22-.891 4.9005-3.4155 3.564-4.3065 2.376-5.4945.4455-4.752-1.188-5.1975-2.8215-4.158-2.673-5.346-.7425"/>
   <path id="road10" d="m84.645 82.863 3.861-4.6035v-6.831l-1.6335-6.6825-2.8215-3.564-1.6335-2.376-3.1185-2.2275"/>
   <path id="road09" d="m48.856 46.629 2.673 4.6035 1.6335 5.346-.1485 3.4155-3.4155 5.94-4.3065 4.6035-.4455 3.7125 1.0395 2.2275 4.455.7425"/>
   <path id="road08" d="m13.662 52.717-2.97 4.0095-.594 5.049 1.0395 5.1975 2.673 7.5735 1.485 3.4155 1.485 3.1185"/>
   <path id="road07" d="m79.299 56.578-4.455-3.861-5.643-2.673-5.643-1.9305-6.3855-1.0395-5.1975-.4455-3.1185 3e-6"/>
   <path id="road06" d="m13.662 52.717 2.5245 2.97 5.643 1.9305 7.8705-1.188 5.7915-2.673 3.861-4.0095 4.455-2.673 5.049-.4455"/>
   <path id="road05" d="m79.299 56.578-1.6335-5.94-.891-5.643.594-6.534 1.9305-6.9795 2.2275-5.643 1.0395-6.0885-.4455-3.564-3.564-1.485"/>
   <path id="road04" d="m49.45 17.671-1.485 6.3855-3.861 4.6035-1.188 5.4945 1.782 5.1975 4.158 7.2765"/>
   <path id="road03" d="m14.108 12.177 3.564 4.0095 3.861 6.237.297 5.7915-2.2275 3.564-5.346 1.6335-4.0095 1.6335 2.673 1.782h4.6035l4.752 1.6335 1.6335 5.7915-1.782 4.6035-2.8215 2.97-5.643.891"/>
   <path id="road02" d="m49.45 17.671 4.9005-.1485 7.8705-.7425 8.1675-1.485 4.0095-.594h4.158"/>
   <path id="road01" d="m14.108 12.177 4.9005-.7425 4.0095 1.485 7.5735-1.0395 5.4945-3.1185 4.752-1.9305 4.752 1.3365 2.5245 2.8215.891 3.1185.4455 3.564"/>
  </g>
 </g>
 <g id="layer-lines-2">
  <g id="layer-2-part-1" stroke="#000000" fill="none"></g>
  <g id="layer-2-part-2" stroke="#ffffff" fill="none"></g>
 </g>
 <g id="layer-lines-3">
  <g id="layer-3-part-1" stroke="#000000" fill="none"></g>
  <g id="layer-3-part-2" stroke="#ffffff" fill="none"></g>
  <g id="layer-3-part-3" stroke="#000000" fill="none"></g>
 </g>
 <g id="layer-nodes" fill="#fcfcfc" stroke="#000" stroke-width=".5">
  <circle id="node09" cx="84.645" cy="82.863" r="2.2072" stop-color="#000000"/>
  <circle id="node08" cx="50.341" cy="77.22" r="2.2072" stop-color="#000000"/>
  <circle id="node07" cx="16.78" cy="81.081" r="2.2072" stop-color="#000000"/>
  <circle id="node06" cx="79.299" cy="56.578" r="2.2072" stop-color="#000000"/>
  <circle id="node05" cx="48.856" cy="46.629" r="2.2072" stop-color="#000000"/>
  <circle id="node04" cx="13.662" cy="52.717" r="2.2072" stop-color="#000000"/>
  <circle id="node03" cx="78.557" cy="14.702" r="2.2072" stop-color="#000000"/>
  <circle id="node02" cx="49.45" cy="17.671" r="2.2072" stop-color="#000000"/>
  <circle id="node01" cx="14.108" cy="12.177" r="2.2072" stop-color="#000000"/>
 </g>
</svg>
